<svg width="209" height="150" viewBox="0 0 209 150" fill="none" xmlns="http://www.w3.org/2000/svg">
<g opacity="0.85">
<g clip-path="url(#clip0)">
<path opacity="0.1" d="M120.944 26.4537C107.599 25.9899 94.879 21.6815 82.7513 16.9688C70.6236 12.2561 58.6032 7.0336 45.5709 4.53637C37.1919 2.92842 27.6093 2.70227 20.8593 7.19458C14.3623 11.5163 12.2638 18.9773 11.1349 25.8998C10.2859 31.1089 9.79337 36.5901 12.1143 41.4676C13.7299 44.8522 16.597 47.6982 18.5806 50.941C25.4801 62.2235 20.6025 76.1374 13.1243 87.1631C9.61705 92.3377 5.54829 97.2612 2.84217 102.764C0.136046 108.266 -1.11735 114.569 1.25146 120.181C3.59919 125.739 9.19159 129.921 15.2516 132.859C27.5595 138.821 42.0618 140.527 56.2037 141.504C87.5081 143.645 118.981 142.717 150.368 141.79C161.984 141.445 173.652 141.098 185.078 139.298C191.424 138.3 197.976 136.717 202.583 132.895C208.431 128.042 209.881 119.828 205.962 113.743C199.389 103.54 181.214 101.004 176.618 90.0532C174.091 84.0258 176.687 77.3103 180.363 71.7198C188.246 59.7282 201.462 49.2065 202.158 35.4977C202.637 26.0818 196.284 16.6545 186.46 12.1986C176.164 7.52422 161.886 8.11451 154.291 15.84C146.47 23.7993 132.724 26.8619 120.944 26.4537Z" fill="#6C63FF"/>
<path d="M46.4276 138.955C46.4276 138.955 35.8868 130.986 33.8955 120.85C33.088 116.592 30.922 112.712 27.7224 109.79C26.1918 108.415 24.5386 107.183 22.7836 106.11" stroke="#535461" stroke-width="2" stroke-miterlimit="10"/>
<path d="M21.4937 99.724C22.4175 100.974 22.8353 106.269 22.8353 106.269C22.8353 106.269 17.8964 104.324 16.9708 103.076C16.5263 102.476 16.3382 101.724 16.448 100.986C16.5578 100.248 16.9565 99.583 17.5562 99.1385C18.156 98.694 18.9078 98.506 19.6462 98.6158C20.3847 98.7256 21.0492 99.1242 21.4937 99.724Z" fill="#6C63FF"/>
<path d="M30.3519 103.879C30.4477 105.43 27.9237 110.102 27.9237 110.102C27.9237 110.102 24.8323 105.782 24.7346 104.232C24.6974 103.493 24.953 102.768 25.4459 102.216C25.9389 101.664 26.6295 101.329 27.3682 101.282C28.1068 101.236 28.834 101.483 29.3921 101.969C29.9502 102.455 30.2944 103.141 30.35 103.879H30.3519Z" fill="#6C63FF"/>
<path d="M38.9379 115.823C38.2402 117.21 33.7 119.97 33.7 119.97C33.7 119.97 33.2151 114.681 33.9127 113.293C34.2562 112.64 34.842 112.149 35.5442 111.924C36.2465 111.699 37.0089 111.759 37.6676 112.09C38.3262 112.422 38.8283 112.999 39.0659 113.697C39.3035 114.395 39.2575 115.158 38.9379 115.823Z" fill="#6C63FF"/>
<path d="M43.4014 126.318C42.9472 127.803 38.9398 131.289 38.9398 131.289C38.9398 131.289 37.5656 126.159 38.0198 124.671C38.2381 123.958 38.731 123.36 39.39 123.01C40.049 122.659 40.8201 122.585 41.5338 122.804C42.2474 123.022 42.8451 123.515 43.1954 124.174C43.5456 124.833 43.6197 125.604 43.4014 126.318Z" fill="#6C63FF"/>
<path d="M23.3547 113.858C24.8879 114.065 29.7348 111.877 29.7348 111.877C29.7348 111.877 25.6449 108.488 24.104 108.281C23.3645 108.182 22.6157 108.38 22.0225 108.833C21.4293 109.286 21.0402 109.956 20.9408 110.695C20.8414 111.435 21.0399 112.183 21.4926 112.777C21.9453 113.37 22.6151 113.759 23.3547 113.858Z" fill="#6C63FF"/>
<path d="M28.7305 126.068C30.2637 125.806 34.2252 122.27 34.2252 122.27C34.2252 122.27 29.3074 120.261 27.7761 120.524C27.4094 120.584 27.0584 120.716 26.7431 120.913C26.4278 121.109 26.1545 121.366 25.9391 121.669C25.7236 121.972 25.5703 122.314 25.4879 122.676C25.4054 123.038 25.3956 123.413 25.4588 123.78C25.5221 124.146 25.6573 124.496 25.8565 124.809C26.0557 125.123 26.3151 125.394 26.6196 125.607C26.9242 125.819 27.2678 125.97 27.6308 126.049C27.9937 126.128 28.3688 126.135 28.7343 126.068H28.7305Z" fill="#6C63FF"/>
<path d="M35.5821 137.221C37.1364 137.221 41.6402 134.405 41.6402 134.405C41.6402 134.405 37.1344 131.594 35.5801 131.594C34.834 131.594 34.1184 131.89 33.5907 132.418C33.0631 132.945 32.7667 133.661 32.7667 134.407C32.7667 135.153 33.0631 135.869 33.5907 136.397C34.1184 136.924 34.834 137.221 35.5801 137.221H35.5821Z" fill="#6C63FF"/>
<path d="M148.827 70.0314C148.827 70.0314 155.324 58.5227 165.117 55.2072C169.23 53.8414 172.789 51.1792 175.26 47.6197C176.419 45.918 177.419 44.1133 178.248 42.2285" stroke="#535461" stroke-width="2" stroke-miterlimit="10"/>
<path d="M184.396 40.1204C183.28 41.2013 178.088 42.3205 178.088 42.3205C178.088 42.3205 179.363 37.1651 180.478 36.0823C181.017 35.5782 181.732 35.3057 182.469 35.3234C183.206 35.3411 183.907 35.6477 184.421 36.1771C184.934 36.7064 185.219 37.4163 185.215 38.1538C185.21 38.8913 184.916 39.5975 184.396 40.1204Z" fill="#6C63FF"/>
<path d="M181.46 49.4404C179.926 49.7432 174.968 47.8612 174.968 47.8612C174.968 47.8612 178.84 44.2198 180.363 43.9227C180.729 43.8415 181.108 43.8342 181.476 43.9013C181.845 43.9683 182.197 44.1084 182.51 44.3131C182.824 44.5179 183.094 44.7833 183.304 45.0938C183.514 45.4043 183.659 45.7535 183.732 46.1211C183.805 46.4886 183.804 46.8671 183.729 47.2342C183.654 47.6013 183.506 47.9497 183.294 48.2589C183.083 48.5681 182.811 48.8319 182.496 49.0348C182.181 49.2377 181.829 49.3756 181.46 49.4404Z" fill="#6C63FF"/>
<path d="M170.773 59.5366C169.305 59.0287 165.968 54.8967 165.968 54.8967C165.968 54.8967 171.143 53.7123 172.615 54.2202C172.969 54.3375 173.295 54.5239 173.576 54.7685C173.857 55.0132 174.087 55.3112 174.252 55.6453C174.417 55.9794 174.514 56.3429 174.537 56.7148C174.56 57.0866 174.51 57.4594 174.388 57.8115C174.266 58.1635 174.075 58.4879 173.827 58.7656C173.578 59.0434 173.277 59.2691 172.941 59.4296C172.605 59.5901 172.24 59.6822 171.868 59.7005C171.496 59.7189 171.124 59.6632 170.773 59.5366Z" fill="#6C63FF"/>
<path d="M160.953 65.3551C159.42 65.1021 155.441 61.5853 155.441 61.5853C155.441 61.5853 160.345 59.5423 161.877 59.7953C162.614 59.9165 163.272 60.3256 163.708 60.9325C164.143 61.5393 164.32 62.2943 164.199 63.0313C164.077 63.7684 163.668 64.427 163.061 64.8625C162.455 65.2979 161.7 65.4744 160.963 65.3532L160.953 65.3551Z" fill="#6C63FF"/>
<path d="M170.639 43.8307C170.637 45.385 173.456 49.8946 173.456 49.8946C173.456 49.8946 176.272 45.3908 176.272 43.8384C176.281 43.4629 176.216 43.0892 176.079 42.7394C175.942 42.3896 175.736 42.0708 175.474 41.8017C175.212 41.5326 174.899 41.3188 174.553 41.1728C174.207 41.0267 173.835 40.9515 173.459 40.9515C173.083 40.9515 172.712 41.0267 172.366 41.1728C172.019 41.3188 171.706 41.5326 171.444 41.8017C171.182 42.0708 170.976 42.3896 170.839 42.7394C170.702 43.0892 170.637 43.4629 170.647 43.8384L170.639 43.8307Z" fill="#6C63FF"/>
<path d="M159.249 50.78C159.713 52.2634 163.745 55.7227 163.745 55.7227C163.745 55.7227 165.087 50.5826 164.619 49.0992C164.377 48.412 163.877 47.8456 163.225 47.5194C162.574 47.1933 161.821 47.1327 161.125 47.3506C160.43 47.5684 159.846 48.0476 159.497 48.6873C159.147 49.327 159.06 50.0772 159.253 50.78H159.249Z" fill="#6C63FF"/>
<path d="M149.117 59.0536C149.323 60.5868 152.712 64.6824 152.712 64.6824C152.712 64.6824 154.899 59.8432 154.692 58.3043C154.651 57.9314 154.535 57.5705 154.353 57.2428C154.17 56.9151 153.924 56.6272 153.628 56.3961C153.333 56.165 152.994 55.9953 152.632 55.897C152.27 55.7988 151.892 55.7739 151.52 55.8239C151.149 55.8738 150.791 55.9977 150.467 56.188C150.144 56.3784 149.862 56.6315 149.638 56.9324C149.414 57.2334 149.253 57.5761 149.163 57.9403C149.073 58.3046 149.058 58.6831 149.117 59.0536Z" fill="#6C63FF"/>
<path opacity="0.25" d="M184.396 40.1204C183.28 41.2013 178.088 42.3205 178.088 42.3205C178.088 42.3205 179.363 37.1651 180.478 36.0823C181.017 35.5782 181.732 35.3057 182.469 35.3234C183.206 35.3411 183.907 35.6477 184.421 36.1771C184.934 36.7064 185.219 37.4163 185.215 38.1538C185.21 38.8913 184.916 39.5975 184.396 40.1204Z" fill="black"/>
<path opacity="0.25" d="M181.46 49.4404C179.926 49.7432 174.968 47.8612 174.968 47.8612C174.968 47.8612 178.84 44.2198 180.363 43.9227C180.729 43.8415 181.108 43.8342 181.476 43.9013C181.845 43.9683 182.197 44.1084 182.51 44.3131C182.824 44.5179 183.094 44.7833 183.304 45.0938C183.514 45.4043 183.659 45.7535 183.732 46.1211C183.805 46.4886 183.804 46.8671 183.729 47.2342C183.654 47.6013 183.506 47.9497 183.294 48.2589C183.083 48.5681 182.811 48.8319 182.496 49.0348C182.181 49.2377 181.829 49.3756 181.46 49.4404Z" fill="black"/>
<path opacity="0.25" d="M170.773 59.5366C169.305 59.0287 165.968 54.8967 165.968 54.8967C165.968 54.8967 171.143 53.7123 172.615 54.2202C172.969 54.3375 173.295 54.5239 173.576 54.7685C173.857 55.0132 174.087 55.3112 174.252 55.6453C174.417 55.9794 174.514 56.3429 174.537 56.7148C174.56 57.0866 174.51 57.4594 174.388 57.8115C174.266 58.1635 174.075 58.4879 173.827 58.7656C173.578 59.0434 173.277 59.2691 172.941 59.4296C172.605 59.5901 172.24 59.6822 171.868 59.7005C171.496 59.7189 171.124 59.6632 170.773 59.5366Z" fill="black"/>
<path opacity="0.25" d="M160.953 65.3551C159.42 65.1021 155.441 61.5853 155.441 61.5853C155.441 61.5853 160.345 59.5423 161.877 59.7953C162.614 59.9165 163.272 60.3256 163.708 60.9325C164.143 61.5393 164.32 62.2943 164.199 63.0313C164.077 63.7684 163.668 64.427 163.061 64.8625C162.455 65.2979 161.7 65.4744 160.963 65.3532L160.953 65.3551Z" fill="black"/>
<path opacity="0.25" d="M170.639 43.8307C170.637 45.385 173.456 49.8946 173.456 49.8946C173.456 49.8946 176.272 45.3908 176.272 43.8384C176.281 43.4629 176.216 43.0892 176.079 42.7394C175.942 42.3896 175.736 42.0708 175.474 41.8017C175.212 41.5326 174.899 41.3188 174.553 41.1728C174.207 41.0267 173.835 40.9515 173.459 40.9515C173.083 40.9515 172.712 41.0267 172.366 41.1728C172.019 41.3188 171.706 41.5326 171.444 41.8017C171.182 42.0708 170.976 42.3896 170.839 42.7394C170.702 43.0892 170.637 43.4629 170.647 43.8384L170.639 43.8307Z" fill="black"/>
<path opacity="0.25" d="M159.249 50.78C159.713 52.2634 163.745 55.7227 163.745 55.7227C163.745 55.7227 165.087 50.5826 164.619 49.0992C164.377 48.412 163.877 47.8456 163.225 47.5194C162.574 47.1933 161.821 47.1327 161.125 47.3506C160.43 47.5684 159.846 48.0476 159.497 48.6873C159.147 49.327 159.06 50.0772 159.253 50.78H159.249Z" fill="black"/>
<path opacity="0.25" d="M149.117 59.0536C149.323 60.5868 152.712 64.6824 152.712 64.6824C152.712 64.6824 154.899 59.8432 154.692 58.3043C154.651 57.9314 154.535 57.5705 154.353 57.2428C154.17 56.9151 153.924 56.6272 153.628 56.3961C153.333 56.165 152.994 55.9953 152.632 55.897C152.27 55.7988 151.892 55.7739 151.52 55.8239C151.149 55.8738 150.791 55.9977 150.467 56.188C150.144 56.3784 149.862 56.6315 149.638 56.9324C149.414 57.2334 149.253 57.5761 149.163 57.9403C149.073 58.3046 149.058 58.6831 149.117 59.0536Z" fill="black"/>
<path d="M149.201 69.8034C149.201 69.8034 150.477 56.6484 158.078 49.6531C161.284 46.7377 163.459 42.8618 164.276 38.6063C164.648 36.5833 164.833 34.5304 164.83 32.4734" stroke="#535461" stroke-width="2" stroke-miterlimit="10"/>
<path d="M169.595 28.0348C169.02 29.4761 164.719 32.6038 164.719 32.6038C164.719 32.6038 163.795 27.3736 164.376 25.9324C164.655 25.2404 165.198 24.6877 165.885 24.3961C166.572 24.1044 167.347 24.0976 168.039 24.3772C168.731 24.6567 169.284 25.1997 169.576 25.8868C169.867 26.5738 169.874 27.3486 169.595 28.0406V28.0348Z" fill="#6C63FF"/>
<path d="M170.689 37.7554C169.418 38.6485 164.115 38.9417 164.115 38.9417C164.115 38.9417 166.181 34.0469 167.452 33.1538C167.753 32.9283 168.097 32.7655 168.462 32.6752C168.827 32.5848 169.207 32.5687 169.579 32.6277C169.951 32.6868 170.307 32.8198 170.626 33.0189C170.946 33.2181 171.222 33.4793 171.438 33.7871C171.655 34.0949 171.808 34.4431 171.887 34.8109C171.967 35.1788 171.972 35.5589 171.902 35.9288C171.832 36.2986 171.689 36.6507 171.48 36.9641C171.272 37.2775 171.003 37.546 170.689 37.7535V37.7554Z" fill="#6C63FF"/>
<path d="M165.004 51.3205C163.456 51.4508 158.73 49.0207 158.73 49.0207C158.73 49.0207 162.984 45.8393 164.533 45.7089C165.277 45.6464 166.015 45.8819 166.585 46.3635C167.155 46.8451 167.51 47.5334 167.573 48.2771C167.635 49.0207 167.4 49.7587 166.918 50.3287C166.436 50.8987 165.748 51.2541 165.004 51.3166V51.3205Z" fill="#6C63FF"/>
<path d="M158.391 60.6137C156.886 60.997 151.819 59.412 151.819 59.412C151.819 59.412 155.474 55.5579 156.978 55.1669C157.7 54.9796 158.467 55.0869 159.111 55.4652C159.754 55.8435 160.22 56.4618 160.408 57.1841C160.595 57.9063 160.488 58.6734 160.109 59.3166C159.731 59.9598 159.113 60.4264 158.391 60.6137Z" fill="#6C63FF"/>
<path d="M158.525 37.0118C159.153 38.4319 163.55 41.4198 163.55 41.4198C163.55 41.4198 164.297 36.1608 163.669 34.7407C163.355 34.0763 162.795 33.5607 162.106 33.3042C161.418 33.0476 160.657 33.0704 159.985 33.3677C159.313 33.665 158.785 34.2133 158.512 34.8953C158.239 35.5773 158.243 36.3389 158.525 37.0175V37.0118Z" fill="#6C63FF"/>
<path d="M150.928 47.9781C151.953 49.1452 157.039 50.6746 157.039 50.6746C157.039 50.6746 156.181 45.4329 155.155 44.2658C154.913 43.9822 154.617 43.7496 154.285 43.5814C153.952 43.4133 153.589 43.3129 153.217 43.2861C152.846 43.2594 152.472 43.3068 152.119 43.4256C151.766 43.5444 151.439 43.7322 151.159 43.9782C150.879 44.2242 150.651 44.5233 150.487 44.8583C150.324 45.1934 150.228 45.5575 150.207 45.9297C150.185 46.3018 150.238 46.6746 150.362 47.0262C150.485 47.3779 150.678 47.7014 150.928 47.9781Z" fill="#6C63FF"/>
<path d="M145.008 59.6535C145.82 60.9759 150.575 63.3428 150.575 63.3428C150.575 63.3428 150.615 58.0321 149.808 56.7078C149.407 56.0963 148.783 55.6654 148.069 55.5063C147.355 55.3472 146.607 55.4725 145.983 55.8557C145.36 56.2389 144.911 56.8497 144.73 57.5587C144.55 58.2677 144.653 59.0191 145.017 59.6535H145.008Z" fill="#6C63FF"/>
<path d="M139.427 18.2855C139.745 17.1183 140.128 15.9454 140.396 14.7629C140.074 15.9454 139.689 17.1222 139.427 18.2855Z" fill="url(#paint0_linear)"/>
<path d="M138.001 29.5278C137.974 29.4818 137.955 29.4358 137.934 29.3936C137.934 29.3745 137.914 29.3591 137.907 29.34C137.865 29.3597 137.822 29.3769 137.778 29.3917C137.694 29.4243 137.608 29.4549 137.52 29.4799C137.432 29.5048 137.395 29.5182 137.328 29.5335C137.272 29.5527 137.215 29.5674 137.157 29.5776L137.173 29.6121C137.244 29.5968 137.313 29.5834 137.384 29.5642L137.403 29.8018C137.483 29.8018 137.558 29.7903 137.631 29.7903C137.665 29.7884 137.7 29.7884 137.734 29.7903C137.884 29.7903 138.014 29.7903 138.118 29.7903C138.077 29.7041 138.035 29.614 138.001 29.5278ZM176.906 91.4562C176.005 90.243 174.208 77.2222 174.208 77.2222C174.208 77.2222 170.672 67.9635 171.636 64.2685C172.6 60.5734 169.002 51.1193 169.002 51.1193C169.002 51.1193 166.626 50.0862 166.497 48.553C166.497 48.553 156.794 45.4866 156.34 43.1868C155.972 41.3009 149.954 39.9479 147.792 39.5205C147.133 36.8604 146.47 34.3785 145.981 33.0235C145.849 32.6019 145.724 32.2377 145.609 31.9503C144.783 29.8421 142.23 29.6504 140.379 29.8191C140.299 29.4598 140.15 29.1194 139.94 28.8167C139.91 28.7127 139.849 28.62 139.766 28.5504C139.726 28.5165 139.684 28.4857 139.639 28.4584C139.606 28.3962 139.562 28.3405 139.509 28.2935C139.456 28.2462 139.399 28.205 139.337 28.1709C139.292 28.1468 139.246 28.1257 139.199 28.1076C139.087 28.0653 138.973 28.0339 138.855 28.0137C138.719 27.9857 138.581 27.9677 138.442 27.9601C138.78 27.8121 139.081 27.5916 139.325 27.3142C139.491 27.1194 139.614 26.8923 139.687 26.6473C139.748 26.4435 139.775 26.2312 139.768 26.0186C139.718 26.1062 139.66 26.189 139.595 26.2659C139.676 25.4169 139.227 24.5544 138.97 23.7092C138.659 22.6089 138.602 21.4524 138.802 20.3266C139.059 18.6285 139.695 16.9114 140.126 15.1827C140.127 15.1731 140.127 15.1635 140.126 15.1539C140.352 14.2954 140.492 13.4165 140.544 12.5302C140.619 10.7421 140.161 8.95781 139.425 7.32877C138.771 5.88563 137.807 4.46549 136.331 3.87904C135.235 3.43632 134.007 3.50724 132.826 3.43441C130.178 3.26959 127.652 2.33816 125.133 1.49106C122.615 0.643961 120.024 -0.126479 117.373 0.0210929C114.723 0.168665 111.996 1.44698 110.786 3.7928C110.403 4.52491 110.182 5.33943 109.724 6.02745C108.866 7.32494 107.329 7.97464 106.047 8.86965C104.764 9.76466 103.636 11.0353 103.172 12.5513C102.919 13.368 102.883 14.2367 103.068 15.0715C103.11 15.26 103.164 15.4457 103.229 15.6273C103.411 16.1337 103.695 16.5974 104.063 16.9899C104.341 17.28 104.66 17.5274 105.01 17.724C105.449 17.9677 105.92 18.1508 106.409 18.2682C106.392 18.3257 106.374 18.3871 106.355 18.4465C106.325 18.5442 106.298 18.6381 106.269 18.7435C106.206 18.9793 106.146 19.2188 106.096 19.4603C106.094 19.4775 106.094 19.4949 106.096 19.5121C105.861 20.6022 105.743 21.7143 105.744 22.8296C105.743 23.357 105.77 23.8841 105.824 24.4088C106.591 32.186 113.011 38.3208 120.944 38.7194C121.216 38.7328 121.49 38.7405 121.768 38.7405C121.894 38.7405 122.019 38.7405 122.151 38.7405C122.276 38.9053 122.398 39.0739 122.515 39.2388C122.632 39.4036 122.74 39.5722 122.841 39.7371L122.563 39.4496L122.285 39.1947C122.21 39.2981 122.126 39.3949 122.034 39.4841C121.853 39.4203 121.668 39.3678 121.48 39.3269C120.685 39.1506 119.474 39.0854 117.879 39.5665C116.413 40.0054 114.621 40.9081 112.524 42.6233L102.308 48.7562L96.7803 52.1178L94.789 56.9857C94.789 56.9857 93.2922 62.7697 91.6268 69.3971C91.5616 69.4162 91.4984 69.4354 91.4351 69.4584C91.3002 69.443 91.1646 69.4354 91.0288 69.4354C90.0625 69.4331 89.133 69.8054 88.4354 70.4741C87.7378 71.1427 87.3264 72.0557 87.2878 73.0212C83.976 77.0459 83.7882 81.0706 84.5663 82.9181C84.6368 83.0912 84.7254 83.2563 84.8308 83.4106C85.3406 84.1466 86.2931 86.0439 87.259 88.0658C87.2341 88.2326 87.2188 88.3725 87.2111 88.4779C87.2094 88.5124 87.2094 88.5469 87.2111 88.5814C87.2111 88.5814 87.7861 97.2651 85.8695 99.7547C85.4498 100.297 85.5131 101.01 85.8695 101.8C87.1536 104.64 92.2305 108.433 92.2305 108.433C92.2305 108.433 98.3192 108.4 101.711 108.03C101.702 108.371 101.694 108.711 101.687 109.042C101.61 112.392 101.61 115.2 101.61 115.2L101.483 118.713C101.483 118.713 100.334 126.116 99.7586 128.157C99.3963 129.438 99.8141 141.291 100.178 150.006H160.169C160.874 144.85 159.88 129.187 159.88 129.187C159.88 129.187 158.935 125.137 158.9 121.607C158.898 121.603 158.897 121.599 158.897 121.594C158.897 121.59 158.898 121.586 158.9 121.582C158.9 121.273 158.9 120.972 158.912 120.677L159.347 120.662L160.129 120.635H160.2C160.2 120.635 160.219 120.562 160.263 120.443C160.366 120.147 160.508 119.866 160.683 119.606C161.016 119.113 161.537 118.63 162.321 118.598C162.754 118.581 163.425 118.23 164.182 117.712C164.187 117.714 164.193 117.714 164.198 117.712C166.235 116.334 168.928 113.791 169.581 113.373C170.48 112.798 174.784 108.965 174.784 108.965C174.784 108.965 175.426 108.153 176.111 107.174L176.136 107.139C176.987 105.912 177.891 104.446 177.669 103.984C177.285 103.156 177.926 101.177 177.926 101.177C179.925 97.5181 177.807 92.6693 176.906 91.4562ZM139.846 32.508C139.865 32.5652 139.876 32.6244 139.881 32.6843C139.833 32.621 139.785 32.554 139.737 32.4926L139.691 32.4313L139.659 32.3853L139.731 32.2856C139.731 32.2856 139.731 32.2856 139.731 32.2991C139.782 32.3612 139.821 32.432 139.846 32.508ZM139.202 30.8099C138.993 30.8521 138.829 30.8904 138.721 30.9192C138.585 30.6777 138.455 30.4362 138.338 30.1909C138.645 30.3691 138.935 30.5764 139.202 30.8099ZM138.842 31.1127C138.842 31.1089 138.842 31.105 138.842 31.1012L138.857 31.1127C138.936 31.1645 139.013 31.2143 139.084 31.2661C139.147 31.3121 139.204 31.3561 139.262 31.4021C139.223 31.4692 139.181 31.5382 139.139 31.5938C139.072 31.4884 139.009 31.3868 138.947 31.2814C138.909 31.2392 138.875 31.1817 138.842 31.1127ZM137.692 28.7478C138.062 28.7112 138.435 28.7112 138.806 28.7478C138.857 28.7478 138.903 28.7573 138.949 28.765C139.053 28.7811 139.155 28.8074 139.254 28.8436C139.481 29.1604 139.62 29.5312 139.659 29.9187L139.555 29.9341L139.453 29.9532C139.262 29.9858 139.07 30.0184 138.921 30.0491L138.729 30.0893C138.474 30.1449 138.327 30.1871 138.321 30.189C138.296 30.1372 138.271 30.0893 138.244 30.0395C138.202 29.9571 138.158 29.8728 138.12 29.7903C138.081 29.7079 138.031 29.614 137.991 29.5278C137.964 29.4818 137.945 29.4358 137.924 29.3936C137.924 29.3745 137.905 29.3591 137.897 29.34C137.886 29.3196 137.876 29.2985 137.868 29.2767C137.752 29.0391 137.644 28.8014 137.541 28.5676C137.529 28.5446 137.52 28.5197 137.51 28.4967L137.656 28.4871V28.5369L137.692 28.7478ZM91.966 147.637C91.9507 144.783 91.7437 141.696 91.1687 138.798C90.9234 137.566 90.6704 136.333 90.4136 135.122C90.3485 134.819 90.2852 134.52 90.222 134.221L89.6317 134.3H89.578C87.9681 126.709 86.2854 120.02 86.2854 120.02C86.2854 120.02 82.943 107.258 83.3302 106.24C83.38 106.108 83.3167 105.751 83.1749 105.228C82.3662 102.327 78.9893 94.3309 77.8087 91.598C77.8087 91.5865 77.7991 91.5731 77.7953 91.5635C77.6036 91.1054 77.4656 90.7969 77.4235 90.7068L77.7014 86.6285L77.7167 86.3831L77.7531 85.8619L77.7378 85.8484L77.7531 85.607C77.7531 85.607 74.8362 83.2151 69.8954 81.4884C69.7037 81.4194 69.5006 81.3523 69.2993 81.2871C69.5466 79.637 69.8743 77.7742 70.3017 75.9592C70.3419 75.7771 70.386 75.6008 70.432 75.4226C70.4723 75.2444 70.5182 75.0719 70.5642 74.8975C70.6371 74.6138 70.7156 74.334 70.7961 74.058C71.0625 73.9737 71.3251 73.8798 71.5838 73.7801L71.6835 73.7418C74.8708 72.5016 77.5008 70.1484 79.0865 67.1181C80.6721 64.0877 81.106 60.5854 80.3078 57.2598C79.8527 55.3736 79.0123 53.602 77.8393 52.0564C77.7512 51.9376 77.6573 51.8188 77.5634 51.7019C77.4695 51.585 77.3564 51.4546 77.251 51.3358C77.8048 50.0767 78.4584 48.8788 78.512 47.6542C78.5216 47.4991 78.5216 47.3436 78.512 47.1885V47.1693C78.4411 46.3816 78.0923 45.5844 77.2797 44.7468C76.0934 43.5183 74.4049 42.8955 72.7165 42.5965C71.028 42.2975 69.307 42.2899 67.609 42.0886C64.7936 41.7513 62.0511 40.8831 59.2357 40.6167C55.7679 40.2956 52.2766 40.8904 49.1108 42.3416C47.016 43.2999 44.8944 44.9749 44.7679 47.2728C44.6644 49.1721 45.9868 50.9928 45.6534 52.869C45.3218 54.7127 43.4436 56.1635 43.6084 58.0283C43.6717 58.7566 44.0454 59.4082 44.513 59.9889C44.674 60.1805 44.8446 60.3722 45.0209 60.5638C45.7032 61.2864 46.4545 61.9801 46.8358 62.8905C46.8512 62.9288 46.8665 62.9672 46.8799 63.0055C47.2038 63.9043 47.0582 65.0408 46.2571 65.5564C46.2615 65.5598 46.2648 65.5645 46.2666 65.5698C46.2781 65.5851 46.2896 65.5966 46.2992 65.6119C46.3004 65.6089 46.3004 65.6054 46.2992 65.6024C46.5833 65.9391 46.9662 66.1778 47.3936 66.2846L47.5565 66.3345C47.4242 66.4782 47.2996 66.6277 47.1732 66.7849L47.0907 66.8941C46.8795 67.1781 46.6875 67.4758 46.5158 67.7853C46.418 67.9578 46.3241 68.1302 46.2456 68.3027C45.9829 68.8285 45.7927 69.3875 45.6802 69.9643C45.4751 71.2331 45.7645 72.5555 45.454 73.7974C45.0707 75.3306 43.8576 76.5073 43.1734 77.9313C41.8778 80.6144 42.6118 83.7633 42.8725 86.7262C43.227 90.7509 42.6521 94.7928 42.0791 98.7907C41.775 100.917 41.4709 103.045 41.1668 105.175C40.4002 110.52 39.6336 115.866 38.867 121.212C38.5872 123.171 38.2556 125.237 36.9505 126.749H36.9639C36.9639 126.749 36.9639 126.76 36.9505 126.764C37.3422 126.935 37.7589 127.043 38.1847 127.082C39.8885 127.253 41.6938 126.429 43.227 125.528C44.4412 124.826 45.5912 124.019 46.6634 123.115C46.5062 123.69 46.3376 124.317 46.1574 124.991C46.158 124.998 46.158 125.004 46.1574 125.011C43.9937 133.252 40.5133 148.359 40.5133 148.359C40.5133 148.359 40.197 149.017 39.7869 149.996H93.8327C93.2002 149.23 92.6119 148.496 92.1519 147.903L91.966 147.637ZM51.9491 71.4362C51.9625 71.4132 51.9721 71.3922 51.9855 71.3711C51.9855 71.4324 51.9855 71.4918 51.9855 71.5493C51.9855 71.6068 51.9855 71.6585 51.9855 71.7122C51.9855 71.7659 51.9855 71.7601 51.9855 71.787C51.9855 71.8138 51.9855 71.787 51.9855 71.787C51.9855 71.8655 51.9683 71.9441 51.9549 72.0227C51.9549 72.0227 51.9549 72.0323 51.9549 72.0399L52.1465 72.1108L52.3688 72.2028C53.6823 72.7216 55.0124 73.1911 56.359 73.6115C56.497 73.6556 56.6369 73.6977 56.7768 73.738L56.8056 73.9756C56.8401 74.219 56.8726 74.4662 56.9033 74.7135C56.9033 74.7135 56.9033 74.725 56.9033 74.7326C56.9896 75.4168 57.0739 76.0991 57.1486 76.7661C57.1486 76.7661 53.6299 75.4245 53.674 77.4618C53.672 77.4981 53.672 77.5346 53.674 77.571C53.6701 77.6195 53.6701 77.6682 53.674 77.7167C53.7066 79.3035 54.2029 80.2445 54.3026 80.7275C54.2966 80.7475 54.2861 80.7659 54.2719 80.7812C54.1869 80.9662 54.1576 81.172 54.1876 81.3734C54.1843 81.7162 54.2112 82.0587 54.2681 82.3968C54.1646 82.46 54.063 82.5233 53.9615 82.5884C53.8848 82.6364 53.812 82.69 53.7372 82.7437C53.2671 81.1128 52.652 79.5273 51.8993 78.0061C51.3722 76.9213 50.78 75.7906 50.7858 74.6004C50.7858 74.5237 50.7858 74.4452 50.7954 74.3666C50.8167 74.0217 50.8824 73.6809 50.9909 73.3528C51.0349 73.2282 51.0829 73.1055 51.1365 72.9848C51.2618 72.6979 51.4019 72.4177 51.5562 72.1453C51.6559 71.9652 51.7613 71.787 51.8629 71.6068C51.8954 71.5531 51.9261 71.4976 51.9568 71.4439L51.9491 71.4362ZM138.001 29.5278C137.974 29.4818 137.955 29.4358 137.934 29.3936C137.934 29.3745 137.914 29.3591 137.907 29.34C137.865 29.3597 137.822 29.3769 137.778 29.3917C137.694 29.4243 137.608 29.4549 137.52 29.4799C137.432 29.5048 137.395 29.5182 137.328 29.5335L137.157 29.5776L137.173 29.6121C137.244 29.5968 137.313 29.5834 137.384 29.5642L137.403 29.8018C137.483 29.8018 137.558 29.7903 137.631 29.7903H137.734C137.884 29.7903 138.014 29.7903 138.118 29.7903C138.077 29.7041 138.035 29.614 138.001 29.5278Z" fill="url(#paint1_linear)"/>
<path d="M96.1248 57.6776L94.9749 58.1854C94.9749 58.1854 87.4794 87.305 87.4794 89.6585C87.4794 92.012 103.373 105.108 103.373 105.108L105.853 88.3687C105.853 88.3687 102.292 49.9827 96.1248 57.6776Z" fill="#E8F5FF"/>
<path d="M130.988 48.415L124.347 44.95C123.975 43.3643 123.315 41.8605 122.4 40.5132C121.429 39.1103 120.137 37.7324 118.527 37.0137C114.458 35.1891 135.737 25.6123 135.737 25.6123C136.072 26.7628 136.467 27.895 136.92 29.0045C138.016 31.7107 139.835 35.2102 142.179 36.2068C146.163 37.9029 130.988 48.415 130.988 48.415Z" fill="#453839"/>
<path opacity="0.1" d="M136.92 29.0045C136.011 32.2022 134.12 35.0335 131.514 37.0986C128.909 39.1636 125.721 40.358 122.4 40.5132C121.429 39.1103 120.137 37.7324 118.527 37.0137C114.458 35.1891 135.737 25.6123 135.737 25.6123C136.072 26.7628 136.467 27.895 136.92 29.0045Z" fill="black"/>
<path d="M137.518 24.1692C137.519 27.3053 136.589 30.3713 134.847 32.9792C133.106 35.5871 130.629 37.62 127.732 38.8205C124.835 40.0211 121.647 40.3355 118.571 39.724C115.495 39.1125 112.669 37.6026 110.452 35.3851C108.234 33.1677 106.724 30.3424 106.112 27.2665C105.5 24.1906 105.814 21.0024 107.014 18.105C108.214 15.2076 110.247 12.7313 112.855 10.9891C115.462 9.24698 118.528 8.31731 121.664 8.31769C123.749 8.30805 125.814 8.71146 127.742 9.50464C129.67 10.2978 131.421 11.465 132.895 12.9389C134.369 14.4127 135.537 16.164 136.33 18.0916C137.124 20.0191 137.527 22.0848 137.518 24.1692Z" fill="#453839"/>
<path d="M139.806 46.3797L135.482 56.4682L131.669 63.1645H119.46L115.899 54.0093L117.343 44.5149H126.666L132.686 44.1757L134.72 43.4973L136.031 44.2409L139.806 46.3797Z" fill="#575A89"/>
<path opacity="0.1" d="M138.317 32.9315C138.317 32.9315 141.013 33.5065 138.599 35.4862C136.184 37.466 127.853 43.7617 127.853 43.7617C127.853 43.7617 130.779 46.3682 130.174 49.4212L139.869 44.0166L141.594 35.3693C141.594 35.3693 141.788 32.7705 138.317 32.9315Z" fill="black"/>
<path opacity="0.1" d="M129.76 43.7617L123.592 44.7794C123.592 44.7794 124.865 49.4845 124.229 50.8203C124.209 50.8618 124.193 50.9047 124.181 50.9487L121.664 57.7504L123.55 63.0917L130.078 54.1895L127.853 50.8203C127.853 50.8203 130.204 47.704 131.603 46.6231C133.002 45.5422 129.76 43.7617 129.76 43.7617Z" fill="black"/>
<path d="M129.76 43.4992L123.592 44.5149C123.592 44.5149 124.865 49.22 124.229 50.5558C124.209 50.5973 124.193 50.6402 124.181 50.6842L121.664 57.4859L123.55 62.8272L130.078 53.9193L127.853 50.55C127.853 50.55 130.204 47.4338 131.603 46.3529C133.002 45.272 129.76 43.4992 129.76 43.4992Z" fill="#DCE6F2"/>
<path d="M138.576 32.4236C138.576 32.4236 141.272 32.9986 138.856 34.9783C136.439 36.9581 127.853 43.7617 127.853 43.7617C127.853 43.7617 131.032 45.8603 130.429 48.9114L140.124 43.5088L141.849 34.8614C141.849 34.8614 142.041 32.2626 138.576 32.4236Z" fill="#575A89"/>
<path opacity="0.1" d="M122.824 41.1131C122.824 41.1131 123.412 42.2132 126.009 44.1968C126.009 44.1968 121.685 46.4966 123.339 49.7298L116.725 48.0049L115.708 44.8254L122.824 41.1131Z" fill="black"/>
<path d="M122.569 40.8601C122.569 40.8601 123.157 41.9602 125.754 43.9438C125.754 43.9438 121.43 46.2321 123.084 49.4749L116.472 47.75L115.455 44.5724L122.569 40.8601Z" fill="#575A89"/>
<path opacity="0.1" d="M139.806 46.3797L135.482 56.4682L131.676 63.1645H119.46L115.899 54.0093L117.341 44.5149H119.934C119.892 46.7304 120.7 49.333 120.649 50.3009C120.56 51.8916 123.021 60.4738 123.021 60.4738C123.021 60.4738 128.171 52.1446 130.204 51.4029C131.483 50.9372 134.191 47.062 136.029 44.2408L139.806 46.3797Z" fill="black"/>
<path d="M156.838 99.4691L156.399 100.021C156.399 100.021 159.579 115.98 158.699 119.604C158.55 120.257 158.464 120.924 158.444 121.593V121.622C158.289 125.31 159.402 130.095 159.402 130.095C159.402 130.095 160.292 144.201 159.786 150.002H100.255C99.9061 141.424 99.5305 130.31 99.8716 129.077C100.447 127.044 101.596 119.667 101.596 119.667L101.723 116.172C101.723 116.172 101.723 112.793 101.826 109.029C101.871 107.336 101.936 105.56 102.03 103.984C102.15 102.003 102.319 100.333 102.551 99.5132C102.694 98.8915 102.776 98.2573 102.796 97.6197C102.796 97.5603 102.796 97.499 102.808 97.4376C102.808 97.246 102.827 97.039 102.835 96.8263C102.835 96.7669 102.835 96.7074 102.835 96.6346C102.871 95.4004 102.858 93.9362 102.817 92.4183C102.817 92.3359 102.817 92.2515 102.817 92.1672C102.785 91.0288 102.737 89.8674 102.683 88.7635C102.516 85.3137 102.3 82.3968 102.3 82.3968L94.9883 58.172L96.9585 53.3194L102.426 49.9693L112.536 43.8652C117.467 39.8118 120.714 40.2986 121.952 40.7432C122.072 40.7843 122.19 40.8323 122.304 40.887C122.343 40.9061 122.373 40.9215 122.402 40.9387C122.442 40.9574 122.479 40.9791 122.515 41.0039C122.176 41.167 121.882 41.4096 121.657 41.7111C121.403 42.0542 121.222 42.4455 121.126 42.861C121.061 43.1185 121.016 43.3805 120.99 43.6448C120.965 43.9227 120.955 44.2102 120.955 44.4996C120.969 45.1343 121.023 45.7674 121.118 46.395C121.118 46.4065 121.118 46.4219 121.118 46.4372C121.181 46.8857 121.26 47.3245 121.337 47.7366C121.336 47.7436 121.336 47.7507 121.337 47.7577C121.425 48.2387 121.513 48.6834 121.572 49.0667C121.584 49.1357 121.593 49.1989 121.603 49.2583C121.645 49.5116 121.665 49.7681 121.662 50.0249C121.684 50.645 121.767 51.2613 121.912 51.8648C121.961 52.1178 122.019 52.388 122.082 52.6697C122.168 53.053 122.262 53.4708 122.364 53.8963C122.419 54.1301 122.479 54.3716 122.54 54.6111C122.563 54.707 122.588 54.8028 122.611 54.9005L122.649 55.0519C123.058 56.6752 123.5 58.2909 123.772 59.2683C123.933 59.8432 124.035 60.1978 124.035 60.1978C124.035 60.1978 126.921 55.5311 129.225 52.8748C129.259 52.8364 129.29 52.8 129.323 52.7655C129.551 52.503 129.775 52.2634 129.99 52.0526C130.459 51.585 130.881 51.2515 131.22 51.1288C131.292 51.1023 131.362 51.0696 131.429 51.0311C132.372 50.4964 133.894 48.555 135.318 46.5215C135.457 46.3299 135.594 46.121 135.732 45.9236C136.048 45.4674 136.354 45.0094 136.644 44.5705C136.866 44.2351 137.079 43.9093 137.28 43.5988C138.238 42.1078 138.913 40.9962 138.913 40.9962L140.243 40.9368L140.475 40.9253H140.63L146.669 40.6455C146.669 40.6455 146.93 40.6896 147.359 40.7758C147.382 40.7758 147.405 40.7758 147.43 40.7911C149.573 41.2166 155.525 42.5639 155.889 44.4325C156.334 46.7208 165.936 49.7739 165.936 49.7739C166.062 51.3071 168.414 52.3171 168.414 52.3171C168.414 52.3171 171.975 61.7272 171.022 65.4146C170.081 69.0559 173.472 78.0636 173.562 78.3165L172.912 79.1368L156.838 99.4691Z" fill="#E8F5FF"/>
<path opacity="0.1" d="M138.315 32.2627C138.315 32.2627 144.193 30.5953 145.529 34.0278C146.865 37.4602 149.852 51.3224 149.852 51.3224C149.852 51.3224 142.094 52.7847 140.061 51.3224C138.868 50.4545 137.392 50.0685 135.927 50.2415L131.54 53.2293L130.245 52.846C130.245 52.846 137.263 42.4125 138.788 38.867C140.314 35.3214 140.829 33.7365 138.315 32.2627Z" fill="black"/>
<path d="M138.06 31.4961C138.06 31.4961 143.942 29.8287 145.283 33.2612C146.625 36.6936 149.607 50.5558 149.607 50.5558C149.607 50.5558 141.851 52.0181 139.816 50.5558C138.624 49.6879 137.148 49.3018 135.684 49.4749L131.293 52.4627L129.997 52.0794C129.997 52.0794 137.016 41.6459 138.541 38.1004C140.067 34.5548 140.575 32.9737 138.06 31.4961Z" fill="#E8F5FF"/>
<path opacity="0.1" d="M98.6048 86.7971C98.6048 86.7971 102.992 87.878 103.82 90.358C104.648 92.8379 100.577 92.9012 100.577 92.9012C100.577 92.9012 98.0969 88.5143 98.6048 86.7971Z" fill="black"/>
<path opacity="0.1" d="M114.945 105.108C114.945 105.108 104.201 127.107 106.681 129.206C109.161 131.304 114.945 105.108 114.945 105.108Z" fill="black"/>
<path opacity="0.1" d="M129.76 88.8957C129.76 88.8957 138.344 110.265 136.627 113.565C134.909 116.865 140.314 113.565 140.314 113.565L129.76 88.8957Z" fill="black"/>
<path d="M141.713 110.004C141.713 110.004 112.72 111.403 121.178 120.432C129.635 129.461 146.991 120.815 146.991 120.815L141.713 110.004Z" fill="#453839"/>
<path opacity="0.1" d="M137.518 24.1692C137.52 26.2486 137.112 28.3081 136.316 30.2292C136.05 30.2599 135.783 30.2791 135.526 30.2906C135.143 29.4492 135.348 28.4775 135.356 27.5518C135.364 26.6262 135.022 25.5376 134.131 25.2884C132.355 24.7882 131.128 28.1096 129.376 27.5097C128.035 27.0536 128.386 25.0182 127.613 23.8434C127.002 22.9139 125.777 22.6513 124.825 22.0687C122.799 20.8249 122.86 18.8355 121.919 16.9535C120.934 14.9814 118.853 15.564 117.045 16.7274C115.673 17.6128 114.489 18.7991 113.021 19.5044C111.75 20.1177 110.322 20.34 108.914 20.3726C108.047 20.4062 107.179 20.3145 106.338 20.1004C107.327 16.3812 109.635 13.1488 112.832 11.0059C116.029 8.86307 119.896 7.95607 123.712 8.45409C127.528 8.95211 131.033 10.8211 133.573 13.7126C136.113 16.6041 137.514 20.3207 137.516 24.1692H137.518Z" fill="black"/>
<path d="M117.051 16.2195C115.677 17.1049 114.495 18.2893 113.027 18.9984C111.756 19.6098 110.328 19.8321 108.919 19.8647C107.195 19.903 105.338 19.6002 104.159 18.3545C103.076 17.2046 102.817 15.4356 103.275 13.9273C103.733 12.419 104.832 11.1675 106.121 10.261C107.411 9.35452 108.908 8.72782 109.763 7.43034C110.215 6.74423 110.434 5.93546 110.809 5.20526C112.011 2.86903 114.713 1.60413 117.325 1.44697C119.938 1.28982 122.527 2.06793 125.014 2.91119C127.502 3.75446 130.009 4.68205 132.634 4.85646C133.804 4.92929 135.019 4.85646 136.103 5.29917C137.562 5.89138 138.518 7.30768 139.17 8.7489C139.9 10.3741 140.354 12.1488 140.278 13.9235C140.117 17.7125 137.614 21.4305 138.714 25.0604C139.005 26.0282 139.551 27.021 139.26 27.9888C138.834 29.4013 137.012 29.7233 135.538 29.7903C135.155 28.949 135.36 27.9754 135.367 27.0516C135.375 26.1279 135.034 25.0374 134.145 24.7882C132.366 24.2919 131.14 27.6074 129.392 27.0095C128.06 26.5514 128.405 24.518 127.63 23.3432C127.019 22.4118 125.792 22.1511 124.842 21.5685C122.816 20.3247 122.877 18.3353 121.936 16.4533C120.944 14.4716 118.86 15.0542 117.051 16.2195Z" fill="#0A0A0A"/>
<path d="M88.9379 89.1487L87.4756 89.6585C87.4756 89.6585 88.0505 98.3058 86.134 100.786C84.2175 103.266 92.4278 109.431 92.4278 109.431C92.4278 109.431 103.682 109.368 104 108.473C104.318 107.578 103.425 92.4509 103.425 92.4509C103.425 92.4509 97.3839 90.0974 97.8918 86.3468C97.8918 86.3468 96.0481 95.1838 93.3152 94.8024C90.5822 94.421 87.4794 92.1385 88.9379 89.1487Z" fill="#E8F5FF"/>
<path opacity="0.1" d="M93.8154 97.4779C95.9461 97.4779 97.6734 95.8982 97.6734 93.9495C97.6734 92.0009 95.9461 90.4212 93.8154 90.4212C91.6847 90.4212 89.9575 92.0009 89.9575 93.9495C89.9575 95.8982 91.6847 97.4779 93.8154 97.4779Z" fill="black"/>
<path d="M98.0337 89.4036C98.0337 89.4036 97.2671 66.0067 90.5938 71.2197C83.9204 76.4326 83.8553 82.667 85.1259 84.5088C86.3966 86.3505 90.4711 95.5709 90.4711 95.5709C91.1084 95.9403 91.8242 96.1534 92.5598 96.1928C93.2954 96.2322 94.0299 96.0968 94.703 95.7976C95.3762 95.4984 95.9689 95.044 96.4325 94.4716C96.8962 93.8992 97.2177 93.2251 97.3706 92.5045L98.0337 89.4036Z" fill="#453839"/>
<path opacity="0.1" d="M139.662 30.1391C139.631 30.0364 139.571 29.9446 139.49 29.8747C139.16 29.5738 138.451 29.4684 137.382 29.5604L137.426 30.0663C138.852 29.9437 139.133 30.2273 139.17 30.2752V30.3231L139.214 30.3864C139.392 30.6253 139.517 30.8988 139.583 31.1892C139.65 31.4796 139.654 31.7806 139.597 32.0729C139.285 33.6349 137.366 34.8787 137.347 34.8921L137.301 34.9189L137.272 34.963C136.444 36.1915 131.762 39.6585 130.538 40.5554L130.43 40.4328C129.882 40.9081 125.064 45.1263 124.804 46.7419C124.635 47.7558 123.493 48.1487 123.079 48.2579C122.642 47.9263 121.223 46.7975 120.486 45.5326C119.794 44.3425 122.578 42.0196 122.824 41.1131L122.44 40.7202C122.4 40.8659 118.824 44.2083 119.819 45.9159C120.616 47.2862 122.072 48.4591 122.582 48.8463C122.419 50.3258 121.406 59.0134 119.847 61.0718C117.912 63.6303 116.285 76.5246 116.465 81.0265C116.624 85.0263 115.579 92.5812 112.091 95.8259C111.487 96.4122 110.759 96.8547 109.96 97.1201C109.161 97.3856 108.313 97.4673 107.478 97.3591H107.436H107.394C107.344 97.3591 102.285 97.8766 98.0337 94.2927C94.5552 91.3661 92.585 86.5902 92.1749 80.0932H92.0906L92.0561 78.2016C92.9992 78.0544 93.8486 77.5474 94.4257 76.787C95.0029 76.0267 95.2629 75.0723 95.1511 74.1243C95.0393 73.1763 94.5644 72.3086 93.8262 71.7034C93.088 71.0982 92.144 70.8027 91.1925 70.8789C90.241 70.9552 89.356 71.3973 88.7236 72.1123C88.0913 72.8273 87.7606 73.7596 87.8012 74.7133C87.8418 75.667 88.2505 76.5679 88.9414 77.2266C89.6322 77.8853 90.5515 78.2505 91.506 78.2457H91.5482L91.5827 80.1258L91.414 80.1373C91.8357 86.8451 93.9055 91.8069 97.5469 94.8715C100.315 97.1649 103.85 98.3219 107.438 98.1085C107.693 98.1363 107.949 98.1504 108.205 98.1506C109.849 98.1591 111.432 97.5227 112.613 96.3778C116.287 92.9569 117.404 85.1241 117.229 80.9882C117.038 76.218 118.745 63.7875 120.459 61.524C122.138 59.3028 123.155 50.6478 123.334 48.9709C123.941 48.8003 125.315 48.2617 125.549 46.8627C125.718 45.8508 128.936 42.7326 130.915 41.0058L130.856 40.9368C131.921 40.1587 135.235 37.7056 136.878 36.1302C137.387 35.6415 137.893 35.1528 138.422 34.687C139.059 34.1236 139.867 33.2286 140.08 32.1707C140.153 31.8214 140.153 31.4611 140.081 31.1117C140.009 30.7624 139.867 30.4314 139.662 30.1391Z" fill="black"/>
<path d="M122.517 48.7255C122.437 48.67 120.528 47.3035 119.571 45.6591C118.579 43.9515 122.155 40.611 122.193 40.4653L122.577 40.8582C122.333 41.7628 119.548 44.0875 120.24 45.2758C121.112 46.7764 122.948 48.0892 122.968 48.1027L122.517 48.7255Z" fill="#353146"/>
<path d="M130.289 40.9272L129.99 40.5152C130.051 40.4711 136.071 36.1167 137.019 34.7081L137.05 34.6659L137.094 34.6372C137.113 34.6238 139.032 33.3819 139.344 31.818C139.402 31.526 139.398 31.2252 139.331 30.935C139.265 30.6448 139.139 30.3717 138.961 30.1334L138.917 30.0682V30.0222C138.879 29.9724 138.597 29.6907 137.171 29.8133L137.127 29.3054C138.198 29.2134 138.905 29.3188 139.235 29.6197C139.317 29.6904 139.378 29.7827 139.409 29.8861C139.617 30.1775 139.762 30.5083 139.836 30.858C139.911 31.2077 139.913 31.569 139.843 31.9196C139.63 32.9794 138.823 33.8744 138.185 34.436C137.658 34.9017 137.15 35.3942 136.642 35.8791C134.716 37.7247 130.499 40.7758 130.289 40.9272Z" fill="#E8F5FF"/>
<path d="M91.8087 77.5343L91.3009 77.5436L91.3575 80.6305L91.8653 80.6212L91.8087 77.5343Z" fill="#E8F5FF"/>
<path d="M91.2588 78.0022C93.3069 78.0022 94.9672 76.3419 94.9672 74.2938C94.9672 72.2456 93.3069 70.5853 91.2588 70.5853C89.2107 70.5853 87.5503 72.2456 87.5503 74.2938C87.5503 76.3419 89.2107 78.0022 91.2588 78.0022Z" fill="#6C63FF"/>
<path d="M91.2588 77.3736C92.9597 77.3736 94.3386 75.9947 94.3386 74.2938C94.3386 72.5928 92.9597 71.2139 91.2588 71.2139C89.5578 71.2139 88.1789 72.5928 88.1789 74.2938C88.1789 75.9947 89.5578 77.3736 91.2588 77.3736Z" fill="#E8F5FF"/>
<path d="M107.963 97.9033C107.707 97.9037 107.451 97.8903 107.197 97.8631C103.609 98.0744 100.074 96.9177 97.3054 94.6261C93.664 91.5597 91.598 86.6036 91.1725 79.89L91.9391 79.8421C92.3493 86.3391 94.3195 91.117 97.7998 94.0416C102.051 97.6159 107.108 97.108 107.158 97.108H107.2H107.243C108.078 97.2156 108.926 97.1337 109.725 96.8683C110.524 96.6028 111.253 96.1607 111.858 95.5748C115.344 92.3301 116.388 84.7752 116.229 80.7754C116.037 76.2697 117.665 63.3754 119.602 60.8187C121.298 58.5783 122.35 48.4802 122.362 48.3786L122.391 48.0912L122.674 48.0413C122.692 48.0413 124.347 47.727 124.554 46.489C124.823 44.8752 129.633 40.657 130.179 40.1798L130.68 40.7547C128.692 42.4796 125.474 45.5997 125.313 46.6135C125.08 48.0164 123.705 48.553 123.1 48.7217C122.908 50.4006 121.898 59.0536 120.225 61.2749C118.512 63.5383 116.804 75.9688 116.996 80.739C117.16 84.8749 116.055 92.7096 112.381 96.1286C111.198 97.2763 109.611 97.9136 107.963 97.9033Z" fill="#353146"/>
<g opacity="0.1">
<path opacity="0.1" d="M139.151 19.6385C139.465 18.4771 139.844 17.308 140.109 16.1313C139.793 17.3138 139.411 18.4771 139.151 19.6385Z" fill="black"/>
<path opacity="0.1" d="M135.944 28.765C135.561 27.9236 135.766 26.95 135.774 26.0263C135.781 25.1025 135.44 24.0216 134.551 23.7629C132.772 23.2665 131.546 26.584 129.798 25.9841C128.456 25.5261 128.811 23.4926 128.037 22.3178C127.425 21.3864 126.201 21.1257 125.25 20.5431C123.222 19.2993 123.284 17.31 122.345 15.4279C121.358 13.4539 119.278 14.0365 117.469 15.2018C116.095 16.0872 114.912 17.2735 113.444 17.9807C112.174 18.5921 110.746 18.8144 109.337 18.847C107.622 18.8872 105.755 18.5825 104.577 17.3368C103.668 16.3785 103.34 14.9737 103.528 13.6571C103.496 13.7472 103.467 13.8372 103.438 13.9273C102.978 15.4356 103.247 17.2084 104.322 18.3545C105.5 19.6002 107.367 19.903 109.082 19.8647C110.493 19.8321 111.919 19.6098 113.191 18.9984C114.663 18.2893 115.846 17.1049 117.216 16.2195C119.025 15.0542 121.107 14.4716 122.092 16.4456C123.031 18.3276 122.971 20.317 124.997 21.5608C125.955 22.1357 127.172 22.4041 127.786 23.3355C128.552 24.5141 128.213 26.5437 129.547 27.0018C131.293 27.5997 132.519 24.2842 134.298 24.7805C135.187 25.0297 135.53 26.1221 135.521 27.0439C135.511 27.9658 135.312 28.9413 135.691 29.7826C137.165 29.7156 138.988 29.3993 139.415 27.9811C139.474 27.7776 139.501 27.5662 139.496 27.3544C138.873 28.4296 137.27 28.7056 135.944 28.765Z" fill="black"/>
</g>
<path opacity="0.1" d="M170.582 75.988L172.807 78.3414C172.807 78.3414 174.587 91.3105 175.476 92.5237C176.366 93.7368 178.466 98.5626 176.494 102.187C176.494 102.187 175.858 104.159 176.239 104.985C176.62 105.811 173.38 109.945 173.38 109.945C173.38 109.945 169.119 113.759 168.228 114.332C167.337 114.905 162.634 119.481 161.045 119.545C159.456 119.608 158.937 121.58 158.937 121.58L149.971 121.898C149.971 121.898 145.019 121.639 143.942 122.339C143.942 122.339 144.517 114.773 138.984 109.813L146.041 107.269C146.041 107.269 148.712 106.119 149.538 104.918C150.058 104.181 150.795 103.626 151.646 103.329C151.646 103.329 153.616 101.93 153.68 101.167C153.743 100.404 156.089 99.4691 156.089 99.4691L154.761 88.1329L155.46 69.3127C155.46 69.3127 157.685 53.5436 162.39 54.4348C167.095 55.326 170.582 75.988 170.582 75.988Z" fill="black"/>
<path d="M171.348 75.988L173.573 78.3414C173.573 78.3414 175.354 91.3105 176.243 92.5237C177.132 93.7368 179.233 98.5626 177.261 102.187C177.261 102.187 176.626 104.159 177.008 104.985C177.389 105.811 174.146 109.945 174.146 109.945C174.146 109.945 169.886 113.759 168.995 114.332C168.103 114.905 163.4 119.481 161.812 119.545C160.223 119.608 159.703 121.58 159.703 121.58L150.738 121.898C150.738 121.898 145.782 121.639 144.709 122.339C144.709 122.339 145.283 114.773 139.75 109.813L146.807 107.269C146.807 107.269 149.479 106.119 150.305 104.918C150.824 104.181 151.562 103.626 152.413 103.329C152.413 103.329 154.383 101.93 154.446 101.167C154.51 100.404 156.855 99.4691 156.855 99.4691L155.527 88.1329L156.227 69.3127C156.227 69.3127 158.452 53.5436 163.157 54.4348C167.862 55.326 171.348 75.988 171.348 75.988Z" fill="#E8F5FF"/>
<path opacity="0.1" d="M163.076 94.9998C163.076 94.9998 169.625 93.275 171.342 95.3831C173.06 97.4912 163.076 94.9998 163.076 94.9998Z" fill="black"/>
<path opacity="0.1" d="M161.551 97.8918C163.776 99.45 170.643 99.5133 170.643 99.5133L161.551 97.8918Z" fill="black"/>
<path opacity="0.1" d="M164.92 105.681C165.112 105.744 169.64 110.577 171.542 109.115C173.443 107.653 164.92 105.681 164.92 105.681Z" fill="black"/>
<path opacity="0.1" d="M103.929 65.1156C103.929 65.1156 105.259 74.2727 104.603 78.0023C103.948 81.7318 106.34 86.3525 106.34 86.3525L103.929 65.1156Z" fill="black"/>
<path d="M74.4835 68.8393C72.9503 70.041 71.831 72.8851 71.0204 76.0109C69.606 81.4634 69.1441 87.786 69.1441 87.786C69.1441 87.786 56.9359 84.9879 57.8251 83.7173C58.3848 82.9181 57.6335 76.8964 57.0068 72.5306C56.6331 69.9509 56.2996 67.9482 56.2996 67.9482C56.2996 67.9482 78.6807 65.5314 74.4835 68.8393Z" fill="#453839"/>
<path opacity="0.1" d="M74.4835 68.5845C72.9503 69.788 71.831 72.6302 71.0204 75.7561C68.588 76.4947 66.0011 76.5613 63.534 75.9489C61.0669 75.3365 58.8114 74.0679 57.0068 72.2776C56.6331 69.696 56.2996 67.6933 56.2996 67.6933C56.2996 67.6933 78.6807 65.2785 74.4835 68.5845Z" fill="black"/>
<path d="M81.0456 61.7348C81.0469 65.0682 79.8688 68.2946 77.72 70.843C75.5711 73.3914 72.59 75.0974 69.3043 75.6591C66.0185 76.2208 62.64 75.602 59.7666 73.9122C56.8932 72.2225 54.7102 69.5706 53.604 66.4261C52.4979 63.2816 52.5398 59.8471 53.7224 56.7305C54.905 53.6139 57.152 51.0161 60.0658 49.397C62.9796 47.7778 66.3722 47.2417 69.6433 47.8834C72.9143 48.5252 75.8529 50.3034 77.9389 52.9035C79.9491 55.4081 81.045 58.5233 81.0456 61.7348Z" fill="#453839"/>
<path opacity="0.1" d="M92.1768 150.002H88.1521L87.8129 142.894L87.4583 135.536C87.4583 135.536 88.3725 135.4 89.8291 135.197L90.4174 135.118H90.4653C90.7835 136.611 91.0978 138.144 91.4006 139.676C91.9046 142.394 92.1669 145.152 92.1845 147.917C92.1845 148.108 92.1845 148.3 92.1845 148.48C92.1959 148.992 92.1845 149.504 92.1768 150.002Z" fill="black"/>
<path d="M91.4044 150.002H40.931C41.1495 149.506 41.2952 149.205 41.2952 149.205C41.2952 149.205 45.3333 131.538 47.3859 124.064C47.3865 124.057 47.3865 124.051 47.3859 124.045C47.6423 123.029 47.952 122.028 48.3135 121.045C48.3368 120.978 48.367 120.914 48.4035 120.854C49.4193 119.202 50.6919 117.421 48.9114 114.878C47.131 112.335 47.7615 101.144 47.7615 101.144C47.7615 101.144 49.9233 91.6057 52.2117 86.5192C52.5589 85.7314 53.0518 85.0161 53.6644 84.4111C53.8635 84.2162 54.0762 84.0356 54.3007 83.8706C54.4713 83.7423 54.6492 83.6239 54.8335 83.516L54.8699 83.493C55.8311 82.948 56.8986 82.6166 57.9995 82.5214C58.7816 82.4396 59.571 82.4615 60.3473 82.5865C64.0577 83.1308 67.0282 84.0412 69.3894 85.078C75.7886 87.8895 77.7262 91.6574 77.7646 91.736L77.7799 91.7686C78.0367 92.3684 81.7931 101.138 83.1462 105.23C83.4969 106.296 83.6885 107.045 83.6119 107.25C83.2286 108.266 86.5365 120.982 86.5365 120.982C86.5365 120.982 88.0697 127.115 89.6029 134.304C89.67 134.603 89.7332 134.902 89.7945 135.204C90.0686 136.51 90.3408 137.84 90.6033 139.168C91.112 141.905 91.3744 144.682 91.3872 147.466C91.4153 148.334 91.421 149.179 91.4044 150.002Z" fill="#FF748E"/>
<path opacity="0.1" d="M57.6986 78.1479C57.6986 78.1479 54.2163 76.8063 54.2585 78.8417C54.3006 80.877 55.1075 81.8506 54.8526 82.1477C54.5977 82.4447 54.9791 84.2252 54.9791 84.2252C54.9791 84.2252 59.6841 84.2252 61.846 85.1987C64.0078 86.1723 71.9767 88.1234 72.9944 88.7175C74.012 89.3116 77.7857 91.9755 77.7857 91.9755L78.1249 86.9313C78.1249 86.9313 74.2248 83.7096 67.8255 82.0576C61.4262 80.4055 57.6986 78.1479 57.6986 78.1479Z" fill="black"/>
<path d="M57.6986 77.893C57.6986 77.893 54.2163 76.5514 54.2585 78.5867C54.3006 80.6221 55.1075 81.5957 54.8526 81.8927C54.5977 82.1898 54.9791 83.9702 54.9791 83.9702C54.9791 83.9702 59.6841 83.9702 61.846 84.9458C64.0078 85.9213 71.9767 87.8704 72.9944 88.4626C74.012 89.0548 77.7857 91.7206 77.7857 91.7206L78.1287 86.6917C78.1287 86.6917 74.2286 83.47 67.8293 81.818C61.4301 80.166 57.6986 77.893 57.6986 77.893Z" fill="#FF748E"/>
<path opacity="0.1" d="M68.2108 90.0322C68.2108 90.0322 74.8649 97.2364 74.5257 99.2315C74.1864 101.227 68.2108 90.0322 68.2108 90.0322Z" fill="black"/>
<path opacity="0.1" d="M57.4016 116.057C57.4016 116.057 52.5241 120.551 51.0867 120.806C49.6493 121.061 52.1887 121.908 53.8407 121.231C55.4927 120.555 59.0153 118.774 59.0153 118.774L57.4016 116.057Z" fill="black"/>
<path d="M93.3861 150.002H82.0116C80.4209 148.622 78.9164 147.344 77.9581 146.575C76.4249 145.345 75.3191 143.534 74.6138 142.077C74.4548 141.746 74.3168 141.435 74.1999 141.153C73.9905 140.668 73.8063 140.172 73.6479 139.668L82.071 134.666C82.5365 135.062 82.9739 135.49 83.38 135.946L83.4816 136.063C83.9492 136.615 84.3612 137.242 84.3977 137.755C84.4398 138.353 86.1034 140.667 87.8033 142.888C89.5282 145.147 91.2952 147.307 91.4121 147.453C91.4121 147.453 91.7034 147.85 92.1787 148.459C92.5141 148.9 92.9281 149.429 93.3861 150.002Z" fill="#453839"/>
<path opacity="0.1" d="M77.939 52.9035C77.5346 53.8158 77.1724 54.7625 77.1187 55.7783C76.9673 58.7106 77.2126 65.267 73.966 66.7389C72.3581 67.4633 70.637 65.8726 68.8738 65.8343C67.6051 65.8074 66.4418 66.6124 65.6675 67.6185C64.8932 68.6247 64.4122 69.8187 63.8507 70.9571C63.3395 71.9904 62.7507 72.9834 62.0894 73.9277C61.8917 74.2167 61.674 74.4914 61.4378 74.7499C59.4581 73.9146 57.6953 72.6384 56.2836 71.0185C54.8719 69.3987 53.8485 67.478 53.2915 65.4028C52.7346 63.3275 52.6587 61.1526 53.0696 59.0436C53.4805 56.9345 54.3674 54.9472 55.6627 53.2328C56.9581 51.5185 58.6276 50.1225 60.5442 49.1511C62.4608 48.1798 64.5738 47.6588 66.7222 47.6278C68.8707 47.5967 70.9979 48.0565 72.9417 48.9721C74.8855 49.8877 76.5947 51.235 77.939 52.9112V52.9035Z" fill="black"/>
<path d="M76.8638 55.2609C76.7105 58.1931 76.9577 64.7495 73.7092 66.2195C72.1013 66.9439 70.3802 65.3552 68.617 65.3168C67.3483 65.2881 66.1869 66.0949 65.4107 67.0992C64.6345 68.1034 64.1573 69.2993 63.5939 70.4397C63.0825 71.4729 62.4938 72.4659 61.8326 73.4103C61.4378 73.9699 61.0008 74.5314 60.3933 74.8457C59.3353 75.3977 58.0532 75.0872 56.9186 74.7327C55.4467 74.2689 53.9966 73.7463 52.5681 73.165C52.6009 72.9493 52.6176 72.7315 52.618 72.5133C52.5758 72.5938 52.5298 72.6686 52.4838 72.7491L52.3937 72.9062C52.2308 73.1937 52.0718 73.4812 51.9261 73.7763C51.8705 73.8894 51.8169 74.0063 51.7689 74.1232C51.5762 74.5583 51.4552 75.0217 51.4106 75.4954C51.3128 76.7738 51.9433 77.9869 52.503 79.1368C54.6552 83.585 55.9853 88.7865 54.3658 93.4532C53.6644 95.4828 52.4493 97.2862 51.562 99.2468C50.0108 102.719 49.5542 106.582 50.253 110.32C50.6957 112.643 51.583 114.943 51.3646 117.298C50.9813 121.352 47.4855 124.369 43.984 126.442C42.0924 127.558 39.7773 128.55 37.7688 127.669C39.049 126.174 39.3787 124.106 39.6546 122.155C40.4097 116.833 41.1668 111.509 41.9257 106.183C42.2285 104.063 42.5307 101.943 42.8322 99.8237C43.3957 95.8412 43.9668 91.8146 43.6142 87.8071C43.3573 84.8538 42.6329 81.7184 43.9131 79.0448C44.5897 77.6285 45.7952 76.4556 46.1708 74.9301C46.4794 73.6901 46.1919 72.3715 46.395 71.1085C46.5062 70.5339 46.6945 69.9769 46.9547 69.4527C47.286 68.7413 47.7185 68.0815 48.2387 67.494C47.7251 67.3445 47.246 67.1394 46.9547 66.7101C47.7788 66.1735 47.9033 64.9642 47.5296 64.0558C47.1559 63.1473 46.4084 62.4555 45.7357 61.7387C45.063 61.0219 44.4153 60.1863 44.3309 59.2089C44.168 57.3479 46.0271 55.9067 46.3548 54.0707C46.6863 52.2021 45.3754 50.3852 45.4808 48.4936C45.6035 46.2072 47.704 44.5456 49.7777 43.5816C52.9069 42.133 56.3637 41.5379 59.7972 41.8567C62.5915 42.1212 65.2957 42.9856 68.0823 43.321C69.7631 43.5126 71.4669 43.5318 73.1362 43.8269C74.8055 44.1221 76.4786 44.7449 77.6534 45.9696C80.7505 49.1989 77.0401 51.8571 76.8638 55.2609Z" fill="black"/>
<path opacity="0.1" d="M74.2727 142.079C73.2953 141.655 71.5167 141.908 68.4637 140.979C65.4107 140.049 64.8223 135.848 64.8223 135.848V135.835C64.7859 135.739 64.5023 135.114 62.5819 132.926C60.4604 130.509 55.8741 118.303 55.8741 118.303C55.8741 118.303 51.8073 113.935 51.9357 112.325C52.0641 110.715 51.2132 106.432 51.2975 101.641C51.3818 96.8492 60.4527 93.6717 60.4527 93.6717C77.9179 90.5765 73.8051 110.711 73.3393 112.237C72.8736 113.762 75.2904 117.883 75.2904 117.883C74.9492 119.677 76.6894 122.454 76.6894 122.454C76.6894 122.454 77.111 124.911 77.1973 125.844C77.2021 125.887 77.2117 125.93 77.226 125.971C77.5059 126.85 79.7865 127.648 80.7141 128.133C81.6896 128.642 84.8269 133.092 84.8269 133.092C85.5035 136.36 75.2463 142.508 74.2727 142.079Z" fill="black"/>
<path d="M74.7806 141.312C73.8051 140.887 72.0246 141.142 68.9735 140.21C65.9224 139.279 65.3321 135.082 65.3321 135.082V135.068C65.2976 134.971 65.0121 134.348 63.0917 132.159C60.9701 129.742 56.3839 117.534 56.3839 117.534C56.3839 117.534 52.3171 113.168 52.4436 111.559C52.57 109.949 51.723 105.665 51.8073 100.878C51.8916 96.0903 60.9567 92.9146 60.9567 92.9146C78.422 89.8195 74.3091 109.954 73.8434 111.48C73.3777 113.005 75.7944 117.126 75.7944 117.126C75.4533 118.92 77.1935 121.697 77.1935 121.697C77.1935 121.697 77.6151 124.154 77.7033 125.087C77.7065 125.13 77.7155 125.173 77.7301 125.214C78.0099 126.093 80.2906 126.891 81.2201 127.376C82.1937 127.883 85.3329 132.335 85.3329 132.335C86.0133 135.597 75.7561 141.746 74.7806 141.312Z" fill="#FF748E"/>
<path opacity="0.1" d="M61.3017 103.427C61.3017 103.427 68.9314 111.476 70.9226 111.476C72.9139 111.476 61.3017 103.427 61.3017 103.427Z" fill="black"/>
<path d="M74.7806 141.312C73.8051 140.887 72.0246 141.142 68.9735 140.21C65.9224 139.279 65.3321 135.082 65.3321 135.082V135.068C67.3541 133.727 72.475 129.938 74.4931 128.552C75.9132 127.581 77.0727 126.153 77.7512 125.206C78.031 126.086 80.3116 126.883 81.2411 127.368C82.2147 127.876 85.354 132.328 85.354 132.328C86.0133 135.597 75.7561 141.746 74.7806 141.312Z" fill="#FF748E"/>
<g opacity="0.1">
<path opacity="0.1" d="M46.9662 66.7312C46.9758 66.7465 46.9892 66.7599 47.0007 66.7753C47.0582 66.7024 47.1176 66.6296 47.1789 66.5606C47.1136 66.6241 47.0424 66.6813 46.9662 66.7312Z" fill="black"/>
<path opacity="0.1" d="M51.4125 75.5165C51.493 74.4528 52.0622 73.5157 52.595 72.5804C52.2462 72.4462 51.8973 72.3102 51.5524 72.1683C51.5852 71.9533 51.6019 71.7362 51.6022 71.5186C51.0637 72.4769 50.4772 73.4198 50.3948 74.4988C50.2971 75.7791 50.9276 76.9903 51.4872 78.1402C53.6414 82.5865 54.9695 87.788 53.3501 92.4566C52.6467 94.4843 51.4335 96.2896 50.5462 98.2502C48.9956 101.722 48.5397 105.584 49.2391 109.322C49.678 111.647 50.5673 113.945 50.3488 116.3C49.9655 120.353 46.4717 123.37 42.9683 125.442C41.5367 126.289 39.8635 127.065 38.2632 127.01C38.1151 127.248 37.9499 127.475 37.7688 127.69C39.7792 128.577 42.0924 127.579 43.984 126.459C47.4894 124.39 50.9908 121.381 51.3741 117.32C51.5926 114.964 50.7034 112.666 50.2626 110.342C49.5629 106.604 50.0174 102.743 51.5658 99.2698C52.4474 97.3111 53.674 95.5039 54.3697 93.4762C55.9891 88.8076 54.659 83.6061 52.5068 79.1598C51.9491 78.0022 51.3147 76.7967 51.4125 75.5165Z" fill="black"/>
<path opacity="0.1" d="M77.6496 45.9926C77.4611 45.7992 77.2587 45.6198 77.044 45.456C79.3668 48.4687 76.0129 51.0292 75.8461 54.2719C75.6967 57.2042 75.942 63.7625 72.6935 65.2305C71.0874 65.9569 69.3645 64.3662 67.6032 64.3279C66.3325 64.301 65.1711 65.1079 64.3949 66.1121C63.6188 67.1164 63.1415 68.3123 62.58 69.4507C62.0677 70.4838 61.4783 71.4768 60.8168 72.4213C60.4335 72.9828 59.985 73.5425 59.3756 73.8587C58.3215 74.4087 57.0394 74.1002 55.9029 73.7437C54.7977 73.3962 53.7027 73.0129 52.6179 72.5938C52.6157 72.7934 52.5991 72.9926 52.5681 73.1898C53.9978 73.7724 55.4486 74.295 56.9205 74.7575C58.0551 75.114 59.3373 75.4225 60.3933 74.8725C61.0008 74.5563 61.4416 73.9948 61.8345 73.4332C62.4965 72.4901 63.0853 71.4976 63.5958 70.4645C64.1592 69.3261 64.6345 68.1283 65.4126 67.1241C66.1907 66.1198 67.3502 65.3149 68.619 65.3417C70.3822 65.38 72.1051 66.9707 73.7111 66.2444C76.9596 64.7763 76.7124 58.218 76.8638 55.2858C77.0401 51.8763 80.7505 49.22 77.6496 45.9926Z" fill="black"/>
</g>
<path opacity="0.1" d="M52.3956 72.9081C52.2327 73.1956 52.0737 73.4831 51.928 73.7782C51.8724 73.8913 51.8188 74.0082 51.7709 74.1251C50.7666 73.1132 48.3211 70.708 46.9566 69.9624C47.2884 69.2513 47.7208 68.5916 48.2406 68.0038C48.2406 68.0038 51.493 69.7229 52.3956 72.9081Z" fill="black"/>
<path d="M52.4857 72.751C51.7325 69.3415 48.2406 67.4959 48.2406 67.4959C47.7204 68.0834 47.2879 68.7432 46.9566 69.4546C48.3959 70.2422 51.0483 72.8832 51.928 73.7782L52.4857 72.751Z" fill="#FF748E"/>
</g>
</g>
<defs>
<linearGradient id="paint0_linear" x1="139.911" y1="18.2855" x2="139.911" y2="14.7629" gradientUnits="userSpaceOnUse">
<stop stop-color="#808080" stop-opacity="0.25"/>
<stop offset="0.54" stop-color="#808080" stop-opacity="0.12"/>
<stop offset="1" stop-color="#808080" stop-opacity="0.1"/>
</linearGradient>
<linearGradient id="paint1_linear" x1="87924.5" y1="126203" x2="87924.5" y2="8799.17" gradientUnits="userSpaceOnUse">
<stop stop-color="#808080" stop-opacity="0.25"/>
<stop offset="0.54" stop-color="#808080" stop-opacity="0.12"/>
<stop offset="1" stop-color="#808080" stop-opacity="0.1"/>
</linearGradient>
<clipPath id="clip0">
<rect width="208.159" height="150" fill="white"/>
</clipPath>
</defs>
</svg>
